# xmcd
# 
# Track frame offsets:
#     150
#     10321
#     22473
#     33489
#     46252
#     58731
#     70280
#     81035
#     92625
#     104663
#     114207
#     126177
#     138900
#     149820
#     163492
#     176090
#     192432
# 
# Disc length: 2706
# 
# Revision: 7
# Processed by: cddbd v1.5.2PL0 Copyright (c) Steve Scherf et al.
# Submitted via: fre:ac v1.0.31
# 
DISCID=020a9011
DTITLE=George Jones - 50 Years Of Hits Disc 1
DYEAR=2004
DGENRE=Country
TTITLE0=Why Baby Why
TTITLE1=Just One More
TTITLE2=Tall, Tall Trees
TTITLE3=Color Of The Blues
TTITLE4=White Lightning
TTITLE5=Window Up Above
TTITLE6=Tender Years
TTITLE7=She Thinks I Still Care
TTITLE8=You Comb Her Hair
TTITLE9=The Race Is On
TTITLE10=We Must Have Been Out Of Our Minds (With Melba Montgomery)
TTITLE11=Still Doin' Time
TTITLE12=Walk Through This World With Me
TTITLE13=She's Mine
TTITLE14=I'll Share My World With You
TTITLE15=A Good Year For The Roses (With Alan Jackson
TTITLE16=Take Me (With Tammy Wynette)
EXTD=
EXTT0=
EXTT1=
EXTT2=
EXTT3=
EXTT4=
EXTT5=
EXTT6=
EXTT7=
EXTT8=
EXTT9=
EXTT10=
EXTT11=
EXTT12=
EXTT13=
EXTT14=
EXTT15=
EXTT16=
PLAYORDER=
